<svg xmlns="http://www.w3.org/2000/svg" viewBox="0 0 330 120" width="330" height="120" style="color:#101E16" role="img" aria-label="Cycling Commons">
  <title>Cycling Commons</title>
  <g transform="translate(8,4) scale(0.85)"><path d="M50 8 C31 8 16 23 16 42 C16 68 50 124 50 124 C50 124 84 68 84 42 C84 23 69 8 50 8 Z M76 42 A26 26 0 1 0 24 42 A26 26 0 1 0 76 42 Z" fill="currentColor" fill-rule="evenodd"/><circle cx="50" cy="42" r="22.5" fill="none" stroke="#C2551F" stroke-width="1"/><line x1="50" y1="37.3" x2="50" y2="20.5" stroke="#C2551F" stroke-width="1.5" stroke-linecap="round"/><circle cx="50" cy="20.5" r="1.7" fill="#C2551F"/><line x1="52.04" y1="37.77" x2="59.33" y2="22.63" stroke="#C2551F" stroke-width="1.5" stroke-linecap="round"/><circle cx="59.33" cy="22.63" r="1.7" fill="#C2551F"/><line x1="53.67" y1="39.07" x2="66.81" y2="28.59" stroke="#C2551F" stroke-width="1.5" stroke-linecap="round"/><circle cx="66.81" cy="28.59" r="1.7" fill="#C2551F"/><line x1="54.58" y1="40.95" x2="70.96" y2="37.22" stroke="#C2551F" stroke-width="1.5" stroke-linecap="round"/><circle cx="70.96" cy="37.22" r="1.7" fill="#C2551F"/><line x1="54.58" y1="43.05" x2="70.96" y2="46.78" stroke="#C2551F" stroke-width="1.5" stroke-linecap="round"/><circle cx="70.96" cy="46.78" r="1.7" fill="#C2551F"/><line x1="53.67" y1="44.93" x2="66.81" y2="55.41" stroke="#C2551F" stroke-width="1.5" stroke-linecap="round"/><circle cx="66.81" cy="55.41" r="1.7" fill="#C2551F"/><line x1="52.04" y1="46.23" x2="59.33" y2="61.37" stroke="#C2551F" stroke-width="1.5" stroke-linecap="round"/><circle cx="59.33" cy="61.37" r="1.7" fill="#C2551F"/><line x1="50" y1="46.7" x2="50" y2="63.5" stroke="#C2551F" stroke-width="1.5" stroke-linecap="round"/><circle cx="50" cy="63.5" r="1.7" fill="#C2551F"/><line x1="47.96" y1="46.23" x2="40.67" y2="61.37" stroke="#C2551F" stroke-width="1.5" stroke-linecap="round"/><circle cx="40.67" cy="61.37" r="1.7" fill="#C2551F"/><line x1="46.33" y1="44.93" x2="33.19" y2="55.41" stroke="#C2551F" stroke-width="1.5" stroke-linecap="round"/><circle cx="33.19" cy="55.41" r="1.7" fill="#C2551F"/><line x1="45.42" y1="43.05" x2="29.04" y2="46.78" stroke="#C2551F" stroke-width="1.5" stroke-linecap="round"/><circle cx="29.04" cy="46.78" r="1.7" fill="#C2551F"/><line x1="45.42" y1="40.95" x2="29.04" y2="37.22" stroke="#C2551F" stroke-width="1.5" stroke-linecap="round"/><circle cx="29.04" cy="37.22" r="1.7" fill="#C2551F"/><line x1="46.33" y1="39.07" x2="33.19" y2="28.59" stroke="#C2551F" stroke-width="1.5" stroke-linecap="round"/><circle cx="33.19" cy="28.59" r="1.7" fill="#C2551F"/><line x1="47.96" y1="37.77" x2="40.67" y2="22.63" stroke="#C2551F" stroke-width="1.5" stroke-linecap="round"/><circle cx="40.67" cy="22.63" r="1.7" fill="#C2551F"/><circle cx="50" cy="42" r="3.2" fill="currentColor"/></g>
  <text x="108" y="54" font-family="'Bricolage Grotesque','Hanken Grotesk',system-ui,sans-serif" font-weight="800" font-size="33" letter-spacing="-0.5" fill="currentColor">Cycling</text>
  <text x="108" y="92" font-family="'Bricolage Grotesque','Hanken Grotesk',system-ui,sans-serif" font-weight="800" font-size="33" letter-spacing="-0.5" fill="currentColor">Commons</text>
</svg>
