<svg xmlns="http://www.w3.org/2000/svg" viewBox="-24.0 46.0 7771.0 1248.0" role="img" aria-label="Cycling Commons">
<title>Cycling Commons</title>
<path transform="translate(0.0,1000) scale(1,-1)" fill="#FF5A1F" d="M339.3331298828125 -13.83331298828125Q258.33349609375 -13.83331298828125 199.41696166992188 12.583282470703125Q140.50042724609375 38.9998779296875 102.50042724609375 86.3331298828125Q64.50042724609375 133.6663818359375 46.583709716796875 195.41641235351562Q28.6669921875 257.16644287109375 28.6669921875 327.6666259765625Q28.6669921875 400.50018310546875 47.250396728515625 463.6668701171875Q65.83380126953125 526.8335571289062 103.41714477539062 573.9168395996094Q141.00048828125 621.0001220703125 198.91702270507812 647.4167175292969Q256.83355712890625 673.8333129882812 336.16644287109375 673.8333129882812Q404.666015625 673.8333129882812 454.9991455078125 654.166748046875Q505.332275390625 634.5001831054688 536.7489318847656 600.0836486816406Q568.1655883789062 565.6671142578125 581.2490539550781 520.5005493164062Q594.33251953125 475.333984375 589.8327026367188 425.0006103515625L456.83465576171875 408.16741943359375Q457.6678466796875 453.50103759765625 443.33428955078125 486.001220703125Q429.000732421875 518.5014038085938 401.1671142578125 536.1681518554688Q373.33349609375 553.8348999023438 331.9998779296875 553.8348999023438Q296.83294677734375 553.8348999023438 268.7492980957031 540.0848083496094Q240.6656494140625 526.334716796875 220.83203125 498.7511901855469Q200.9984130859375 471.16766357421875 190.49822998046875 430.00067138671875Q179.998046875 388.83367919921875 179.998046875 333.9998779296875Q179.998046875 263.49932861328125 198.16497802734375 212.41567993164062Q216.3319091796875 161.33203125 252.58230590820312 133.66522216796875Q288.83270263671875 105.9984130859375 342.3331298828125 105.9984130859375Q391.0001220703125 105.9984130859375 420.50048828125 127.99853515625Q450.0008544921875 149.9986572265625 463.16778564453125 189.49896240234375Q476.334716796875 228.999267578125 472.83477783203125 279.9998779296875L609.332763671875 267.16656494140625Q613.666015625 211.16644287109375 600.499267578125 160.66644287109375Q587.33251953125 110.16644287109375 554.7491760253906 70.66650390625Q522.1658325195312 31.16656494140625 468.8326416015625 8.6666259765625Q415.49945068359375 -13.83331298828125 339.3331298828125 -13.83331298828125Z"/>
<path transform="translate(609.0,1000) scale(1,-1)" fill="#EFE6D4" d="M224.333251953125 -154.49981689453125Q192.3330078125 -154.49981689453125 156.08297729492188 -148.6663818359375Q119.83294677734375 -142.83294677734375 84.999755859375 -130.16607666015625Q50.16656494140625 -117.49920654296875 21.16680908203125 -97.9989013671875L59.83367919921875 42.9984130859375Q93.83343505859375 7.998291015625 137.41665649414062 -6.3350830078125Q180.9998779296875 -20.66845703125 218.0001220703125 -20.66845703125Q271.0006103515625 -20.66845703125 305.33404541015625 1.081817626953125Q339.66748046875 22.83209228515625 356.2507629394531 63.082427978515625Q372.83404541015625 103.332763671875 372.83404541015625 158.83294677734375L375.3343505859375 258.00048828125H366.50103759765625Q363.16754150390625 185.6668701171875 341.4173889160156 140.166748046875Q319.667236328125 94.6666259765625 283.83380126953125 73.49993896484375Q248.0003662109375 52.333251953125 201.6669921875 52.333251953125Q144.000244140625 52.333251953125 106.58358764648438 81.6666259765625Q69.16693115234375 111 50.50030517578125 168.49993896484375Q31.83367919921875 225.9998779296875 31.83367919921875 310.16619873046875V524.9996337890625H175.33154296875V345.998779296875Q175.33154296875 258.99853515625 195.24844360351562 218.58169555664062Q215.16534423828125 178.16485595703125 258.33251953125 178.16485595703125Q281.3328857421875 178.16485595703125 299.4998779296875 189.74832153320312Q317.6668701171875 201.331787109375 329.83380126953125 224.99871826171875Q342.000732421875 248.6656494140625 348.2508850097656 284.33270263671875Q354.50103759765625 319.999755859375 354.50103759765625 367.16693115234375V524.9996337890625H497.9989013671875V153.999755859375Q497.9989013671875 105.333740234375 488.49908447265625 59.66729736328125Q478.999267578125 14.0008544921875 458.83282470703125 -24.749176025390625Q438.6663818359375 -63.49920654296875 406.7499084472656 -92.74935913085938Q374.83343505859375 -121.99951171875 329.5834655761719 -138.24966430664062Q284.33349609375 -154.49981689453125 224.333251953125 -154.49981689453125Z"/>
<path transform="translate(1122.0,1000) scale(1,-1)" fill="#EFE6D4" d="M286.3330078125 -13.83331298828125Q218 -13.83331298828125 168.25015258789062 7.1666259765625Q118.50030517578125 28.16656494140625 86.6669921875 65.66650390625Q54.83367919921875 103.16644287109375 39.6669921875 152.24978637695312Q24.50030517578125 201.3331298828125 24.50030517578125 257.49993896484375Q24.50030517578125 314.16668701171875 39.6669921875 364.5Q54.83367919921875 414.83331298828125 86.08364868164062 454.5832214355469Q117.3336181640625 494.3331298828125 166.5001220703125 516.6663818359375Q215.6666259765625 538.9996337890625 283.666259765625 538.9996337890625Q364.49920654296875 538.9996337890625 414.7490539550781 508.499755859375Q464.9989013671875 477.9998779296875 485.99896240234375 429.50006103515625Q506.9990234375 381.000244140625 499.6658935546875 324.6671142578125L373.83428955078125 313.83380126953125Q375.334228515625 351.16729736328125 364.1673583984375 375.7507629394531Q353.00048828125 400.334228515625 331.83355712890625 412.5843200683594Q310.6666259765625 424.83441162109375 281.49969482421875 424.83441162109375Q256.666259765625 424.83441162109375 236.166015625 415.667724609375Q215.665771484375 406.50103759765625 200.8321533203125 387.00091552734375Q185.99853515625 367.50079345703125 177.91500854492188 337.4172058105469Q169.83148193359375 307.3336181640625 169.83148193359375 264.49981689453125Q169.83148193359375 209.49920654296875 183.831787109375 171.58230590820312Q197.83209228515625 133.6654052734375 224.33245849609375 114.41537475585938Q250.83282470703125 95.16534423828125 288.49969482421875 95.16534423828125Q327.83331298828125 95.16534423828125 349.3336181640625 113.58206176757812Q370.83392333984375 131.998779296875 378.66748046875 160.74893188476562Q386.50103759765625 189.49908447265625 383.16778564453125 218.9993896484375L516.4992065429688 211.9993896484375Q521.3323974609375 167.49932861328125 510.4156188964844 126.74942016601562Q499.49884033203125 85.99951171875 471.0821838378906 54.16632080078125Q442.66552734375 22.3331298828125 396.7490539550781 4.249908447265625Q350.83258056640625 -13.83331298828125 286.3330078125 -13.83331298828125Z"/>
<path transform="translate(1636.0,1000) scale(1,-1)" fill="#EFE6D4" d="M38.6669921875 0V694.9993896484375H182.9981689453125V0Z"/>
<path transform="translate(1838.0,1000) scale(1,-1)" fill="#EFE6D4" d="M38.6669921875 0V524.9996337890625H182.9981689453125V0ZM109.999267578125 569.6671142578125Q68.16644287109375 569.6671142578125 46.083404541015625 587.500244140625Q24.0003662109375 605.3333740234375 24.0003662109375 638.8709631133498Q24.0003662109375 673.3149735300165 46.17085652955821 690.990189401727Q68.34134684817892 708.6654052734375 109.96757356885453 708.6654052734375Q152.49871826171875 708.6654052734375 174.58175659179688 690.5823059082031Q196.664794921875 672.4992065429688 196.664794921875 638.666259765625Q196.664794921875 605.9824539987665 174.54703013102215 587.8247841282895Q152.42926534016928 569.6671142578125 109.999267578125 569.6671142578125Z"/>
<path transform="translate(2040.0,1000) scale(1,-1)" fill="#EFE6D4" d="M38.6669921875 0V285.49835205078125L38.3336181640625 524.9996337890625H162.16534423828125L158.49822998046875 302.6654052734375H166.83160400390625Q172.83160400390625 382.9990234375 193.41500854492188 435.1658935546875Q213.9984130859375 487.332763671875 251.74850463867188 513.1661987304688Q289.49859619140625 538.9996337890625 346.665283203125 538.9996337890625Q433.16534423828125 538.9996337890625 476.2486267089844 480.49945068359375Q519.3319091796875 421.999267578125 519.3319091796875 304.49871826171875V0H375.000732421875V287.999267578125Q375.000732421875 351.333740234375 356.4171447753906 382.2508850097656Q337.83355712890625 413.16802978515625 296.666259765625 413.16802978515625Q262.16571044921875 413.16802978515625 236.58206176757812 389.2510070800781Q210.9984130859375 365.333984375 196.998291015625 313.4167175292969Q182.9981689453125 261.49945068359375 182.9981689453125 176.33203125V0Z"/>
<path transform="translate(2573.0,1000) scale(1,-1)" fill="#EFE6D4" d="M246.16680908203125 -156.3331298828125Q157.50018310546875 -156.3331298828125 106.16693115234375 -142.41647338867188Q54.83367919921875 -128.49981689453125 33.250396728515625 -104.24984741210938Q11.6671142578125 -79.9998779296875 11.6671142578125 -48.49993896484375Q11.6671142578125 -5 46.583770751953125 21.916717529296875Q81.50042724609375 48.83343505859375 149.83392333984375 59.6668701171875V65.6669921875Q97.16705322265625 65.6669921875 68.41708374023438 82.00018310546875Q39.6671142578125 98.3333740234375 39.6671142578125 128.49993896484375Q39.6671142578125 156.66650390625 66.1671142578125 178.6663818359375Q92.6671142578125 200.666259765625 153.83392333984375 203.6666259765625V211.3333740234375Q97.16693115234375 223.333251953125 65.16693115234375 260.5832824707031Q33.16693115234375 297.83331298828125 33.16693115234375 355.3331298828125Q33.16693115234375 406.6663818359375 59.8336181640625 444.49969482421875Q86.50030517578125 482.3330078125 136.91690063476562 503.66632080078125Q187.33349609375 524.9996337890625 258.16656494140625 524.9996337890625H519.999755859375V412.0009765625L341.16668701171875 434.83428955078125V426.334228515625Q420.3328857421875 415.0008544921875 449.4161682128906 387.4173889160156Q478.49945068359375 359.83392333984375 478.49945068359375 321.50042724609375Q478.49945068359375 283.3336181640625 455.66607666015625 253.25015258789062Q432.83270263671875 223.16668701171875 386.0827331542969 206.08328247070312Q339.332763671875 188.9998779296875 268.49957275390625 188.9998779296875Q247.49969482421875 188.9998779296875 226.833251953125 190.83319091796875Q206.16680908203125 192.66650390625 189.83343505859375 196.66650390625Q166.9993896484375 187.83294677734375 156.08255004882812 178.91610717773438Q145.16571044921875 169.999267578125 145.16571044921875 161.6658935546875Q145.16571044921875 155.83245849609375 150.49920654296875 152.99908447265625Q155.83270263671875 150.16571044921875 165.33294677734375 149.16571044921875Q174.83319091796875 148.16571044921875 186.666748046875 148.16571044921875H345.83331298828125Q365.66650390625 148.16571044921875 396.8331298828125 145.74905395507812Q427.999755859375 143.3323974609375 459.499755859375 131.165771484375Q490.999755859375 118.9991455078125 512.1664428710938 90.91592407226562Q533.3331298828125 62.83270263671875 533.3331298828125 11.3328857421875Q533.3331298828125 -46.33349609375 502.0831604003906 -83.25003051757812Q470.83319091796875 -120.16656494140625 407.4165954589844 -138.24984741210938Q344 -156.3331298828125 246.16680908203125 -156.3331298828125ZM244.333251953125 -29.50164794921875Q314.000244140625 -29.50164794921875 349.0006103515625 -24.084869384765625Q384.0009765625 -18.6680908203125 396.0845642089844 -8.6678466796875Q408.16815185546875 1.3323974609375 408.16815185546875 14.49945068359375Q408.16815185546875 30.49969482421875 399.2513732910156 39.49981689453125Q390.3345947265625 48.49993896484375 376.667724609375 52.416656494140625Q363.0008544921875 56.3333740234375 349.0838928222656 57.00006103515625Q335.16693115234375 57.666748046875 324.9998779296875 57.666748046875H191.50006103515625Q154.83282470703125 44.66650390625 141.24923706054688 33.4996337890625Q127.6656494140625 22.332763671875 127.6656494140625 7.3323974609375Q127.6656494140625 -9.16790771484375 142.33245849609375 -16.918060302734375Q156.999267578125 -24.668212890625 183.24948120117188 -27.084930419921875Q209.49969482421875 -29.50164794921875 244.333251953125 -29.50164794921875ZM260.9998779296875 270.3323974609375Q298.50054931640625 270.3323974609375 319.7510070800781 292.0826110839844Q341.00146484375 313.83282470703125 341.00146484375 351.49981689453125Q341.00146484375 389.33349609375 319.0009765625 412.66705322265625Q297.00048828125 436.0006103515625 259.49981689453125 436.0006103515625Q222.16571044921875 436.0006103515625 199.74856567382812 412.5003662109375Q177.3314208984375 389.0001220703125 177.3314208984375 351.9998779296875Q177.3314208984375 327.3330078125 187.41500854492188 308.83282470703125Q197.49859619140625 290.3326416015625 216.33233642578125 280.33251953125Q235.16607666015625 270.3323974609375 260.9998779296875 270.3323974609375Z"/>
<path transform="translate(3287.0,1000) scale(1,-1)" fill="#FF5A1F" d="M339.3331298828125 -13.83331298828125Q258.33349609375 -13.83331298828125 199.41696166992188 12.583282470703125Q140.50042724609375 38.9998779296875 102.50042724609375 86.3331298828125Q64.50042724609375 133.6663818359375 46.583709716796875 195.41641235351562Q28.6669921875 257.16644287109375 28.6669921875 327.6666259765625Q28.6669921875 400.50018310546875 47.250396728515625 463.6668701171875Q65.83380126953125 526.8335571289062 103.41714477539062 573.9168395996094Q141.00048828125 621.0001220703125 198.91702270507812 647.4167175292969Q256.83355712890625 673.8333129882812 336.16644287109375 673.8333129882812Q404.666015625 673.8333129882812 454.9991455078125 654.166748046875Q505.332275390625 634.5001831054688 536.7489318847656 600.0836486816406Q568.1655883789062 565.6671142578125 581.2490539550781 520.5005493164062Q594.33251953125 475.333984375 589.8327026367188 425.0006103515625L456.83465576171875 408.16741943359375Q457.6678466796875 453.50103759765625 443.33428955078125 486.001220703125Q429.000732421875 518.5014038085938 401.1671142578125 536.1681518554688Q373.33349609375 553.8348999023438 331.9998779296875 553.8348999023438Q296.83294677734375 553.8348999023438 268.7492980957031 540.0848083496094Q240.6656494140625 526.334716796875 220.83203125 498.7511901855469Q200.9984130859375 471.16766357421875 190.49822998046875 430.00067138671875Q179.998046875 388.83367919921875 179.998046875 333.9998779296875Q179.998046875 263.49932861328125 198.16497802734375 212.41567993164062Q216.3319091796875 161.33203125 252.58230590820312 133.66522216796875Q288.83270263671875 105.9984130859375 342.3331298828125 105.9984130859375Q391.0001220703125 105.9984130859375 420.50048828125 127.99853515625Q450.0008544921875 149.9986572265625 463.16778564453125 189.49896240234375Q476.334716796875 228.999267578125 472.83477783203125 279.9998779296875L609.332763671875 267.16656494140625Q613.666015625 211.16644287109375 600.499267578125 160.66644287109375Q587.33251953125 110.16644287109375 554.7491760253906 70.66650390625Q522.1658325195312 31.16656494140625 468.8326416015625 8.6666259765625Q415.49945068359375 -13.83331298828125 339.3331298828125 -13.83331298828125Z"/>
<path transform="translate(3896.0,1000) scale(1,-1)" fill="#EFE6D4" d="M281.6666259765625 -13.83331298828125Q207.0001220703125 -13.83331298828125 148.6668701171875 16.583343505859375Q90.3336181640625 47 57.416961669921875 108.24996948242188Q24.50030517578125 169.49993896484375 24.50030517578125 261.83319091796875Q24.50030517578125 357.16632080078125 58.583587646484375 418.33294677734375Q92.6668701171875 479.49957275390625 151.166748046875 509.2496032714844Q209.6666259765625 538.9996337890625 283.16644287109375 538.9996337890625Q359.3328857421875 538.9996337890625 417.1661376953125 508.4162902832031Q474.9993896484375 477.83294677734375 507.4993896484375 416.4996337890625Q539.9993896484375 355.16632080078125 539.9993896484375 261.999755859375Q539.9993896484375 166.49993896484375 506.0827941894531 105.41665649414062Q472.16619873046875 44.3333740234375 413.66632080078125 15.250030517578125Q355.16644287109375 -13.83331298828125 281.6666259765625 -13.83331298828125ZM284.83319091796875 94.33203125Q319.83367919921875 94.33203125 344.000732421875 112.99884033203125Q368.16778564453125 131.6656494140625 381.0013427734375 167.74923706054688Q393.83489990234375 203.83282470703125 393.83489990234375 254.16656494140625Q393.83489990234375 308.6668701171875 380.0846862792969 346.4171447753906Q366.33447265625 384.16741943359375 340.7507629394531 404.5842590332031Q315.16705322265625 425.0010986328125 279.16656494140625 425.0010986328125Q244.9993896484375 425.0010986328125 220.74899291992188 406.00091552734375Q196.49859619140625 387.000732421875 183.58169555664062 350.6671142578125Q170.664794921875 314.33349609375 170.664794921875 263.49981689453125Q170.664794921875 183.666015625 200.91525268554688 138.9990234375Q231.16571044921875 94.33203125 284.83319091796875 94.33203125Z"/>
<path transform="translate(4440.0,1000) scale(1,-1)" fill="#EFE6D4" d="M38.83367919921875 0V277.3314208984375L38.3336181640625 524.9996337890625H162.33203125L158.6649169921875 302.6654052734375H166.998291015625Q173.998291015625 388.16558837890625 194.58163452148438 439.9158020019531Q215.16497802734375 491.666015625 249.99835205078125 515.3328247070312Q284.83172607421875 538.9996337890625 333.6651611328125 538.9996337890625Q384.3319091796875 538.9996337890625 415.49859619140625 513.5828552246094Q446.665283203125 488.16607666015625 461.16522216796875 435.99920654296875Q475.6651611328125 383.83233642578125 473.49835205078125 302.6654052734375H481.83172607421875Q488.49835205078125 387.16558837890625 510.2483215332031 438.9158020019531Q531.998291015625 490.666015625 568.2483215332031 514.8328247070312Q604.4983520507812 538.9996337890625 654.8318481445312 538.9996337890625Q695.6651611328125 538.9996337890625 725.6651611328125 523.9996337890625Q755.6651611328125 508.9996337890625 776.0818176269531 478.9162902832031Q796.4984741210938 448.83294677734375 806.4984741210938 403.2496032714844Q816.4984741210938 357.666259765625 816.4984741210938 296.49957275390625V0H672.0006103515625V282.666259765625Q672.0006103515625 326.16693115234375 664.7505187988281 354.833984375Q657.5004272460938 383.50103759765625 642.7502136230469 397.4178771972656Q628 411.334716796875 604.9996337890625 411.334716796875Q574.3323974609375 411.334716796875 550.0821228027344 385.167724609375Q525.8318481445312 359.000732421875 511.7484436035156 308.0835876464844Q497.6650390625 257.16644287109375 497.6650390625 181.3326416015625V0H356.6671142578125V287.16632080078125Q356.6671142578125 329.83355712890625 349.33367919921875 357.0839538574219Q342.000244140625 384.3343505859375 326.9167175292969 397.83453369140625Q311.83319091796875 411.334716796875 288.99951171875 411.334716796875Q259.6656494140625 411.334716796875 235.83203125 387.8343505859375Q211.9984130859375 364.333984375 197.58163452148438 313.4168395996094Q183.16485595703125 262.49969482421875 183.16485595703125 181.3326416015625V0Z"/>
<path transform="translate(5270.0,1000) scale(1,-1)" fill="#EFE6D4" d="M38.83367919921875 0V277.3314208984375L38.3336181640625 524.9996337890625H162.33203125L158.6649169921875 302.6654052734375H166.998291015625Q173.998291015625 388.16558837890625 194.58163452148438 439.9158020019531Q215.16497802734375 491.666015625 249.99835205078125 515.3328247070312Q284.83172607421875 538.9996337890625 333.6651611328125 538.9996337890625Q384.3319091796875 538.9996337890625 415.49859619140625 513.5828552246094Q446.665283203125 488.16607666015625 461.16522216796875 435.99920654296875Q475.6651611328125 383.83233642578125 473.49835205078125 302.6654052734375H481.83172607421875Q488.49835205078125 387.16558837890625 510.2483215332031 438.9158020019531Q531.998291015625 490.666015625 568.2483215332031 514.8328247070312Q604.4983520507812 538.9996337890625 654.8318481445312 538.9996337890625Q695.6651611328125 538.9996337890625 725.6651611328125 523.9996337890625Q755.6651611328125 508.9996337890625 776.0818176269531 478.9162902832031Q796.4984741210938 448.83294677734375 806.4984741210938 403.2496032714844Q816.4984741210938 357.666259765625 816.4984741210938 296.49957275390625V0H672.0006103515625V282.666259765625Q672.0006103515625 326.16693115234375 664.7505187988281 354.833984375Q657.5004272460938 383.50103759765625 642.7502136230469 397.4178771972656Q628 411.334716796875 604.9996337890625 411.334716796875Q574.3323974609375 411.334716796875 550.0821228027344 385.167724609375Q525.8318481445312 359.000732421875 511.7484436035156 308.0835876464844Q497.6650390625 257.16644287109375 497.6650390625 181.3326416015625V0H356.6671142578125V287.16632080078125Q356.6671142578125 329.83355712890625 349.33367919921875 357.0839538574219Q342.000244140625 384.3343505859375 326.9167175292969 397.83453369140625Q311.83319091796875 411.334716796875 288.99951171875 411.334716796875Q259.6656494140625 411.334716796875 235.83203125 387.8343505859375Q211.9984130859375 364.333984375 197.58163452148438 313.4168395996094Q183.16485595703125 262.49969482421875 183.16485595703125 181.3326416015625V0Z"/>
<path transform="translate(6680.0,1000) scale(1,-1)" fill="#EFE6D4" d="M38.6669921875 0V285.49835205078125L38.3336181640625 524.9996337890625H162.16534423828125L158.49822998046875 302.6654052734375H166.83160400390625Q172.83160400390625 382.9990234375 193.41500854492188 435.1658935546875Q213.9984130859375 487.332763671875 251.74850463867188 513.1661987304688Q289.49859619140625 538.9996337890625 346.665283203125 538.9996337890625Q433.16534423828125 538.9996337890625 476.2486267089844 480.49945068359375Q519.3319091796875 421.999267578125 519.3319091796875 304.49871826171875V0H375.000732421875V287.999267578125Q375.000732421875 351.333740234375 356.4171447753906 382.2508850097656Q337.83355712890625 413.16802978515625 296.666259765625 413.16802978515625Q262.16571044921875 413.16802978515625 236.58206176757812 389.2510070800781Q210.9984130859375 365.333984375 196.998291015625 313.4167175292969Q182.9981689453125 261.49945068359375 182.9981689453125 176.33203125V0Z"/>
<path transform="translate(7213.0,1000) scale(1,-1)" fill="#EFE6D4" d="M263.16619873046875 -13.83331298828125Q211.16632080078125 -13.83331298828125 166.58309936523438 -3.33331298828125Q121.9998779296875 7.16668701171875 89.33331298828125 30.16668701171875Q56.666748046875 53.16668701171875 39.66680908203125 91.5Q22.6668701171875 129.83331298828125 25.83355712890625 184.49993896484375L152.49847412109375 195.66650390625Q153.3316650390625 158.666015625 167.331787109375 135.33245849609375Q181.3319091796875 111.9989013671875 206.74887084960938 101.41549682617188Q232.16583251953125 90.83209228515625 267.6661376953125 90.83209228515625Q305.6669921875 90.83209228515625 330.66729736328125 103.66571044921875Q355.6676025390625 116.49932861328125 355.6676025390625 143.9996337890625Q355.6676025390625 160.83343505859375 345.2506408691406 171.08364868164062Q334.83367919921875 181.3338623046875 310.8333740234375 189.167236328125Q286.83306884765625 197.0006103515625 245.83306884765625 206.50054931640625Q197.50006103515625 218.333740234375 157.50018310546875 230.50030517578125Q117.50030517578125 242.6668701171875 88.58364868164062 260.16680908203125Q59.6669921875 277.666748046875 44.3336181640625 304.0834045410156Q29.000244140625 330.50006103515625 29.000244140625 370.0001220703125Q29.000244140625 423.16656494140625 57.416778564453125 460.8331298828125Q85.83331298828125 498.49969482421875 136.24978637695312 518.7496643066406Q186.666259765625 538.9996337890625 252.9993896484375 538.9996337890625Q312.999267578125 538.9996337890625 364.7491149902344 519.9996337890625Q416.49896240234375 500.9996337890625 446.33221435546875 458.49969482421875Q476.16546630859375 415.999755859375 469.16558837890625 346.333251953125L345.16729736328125 333.83331298828125Q348.16729736328125 366.16705322265625 335.83380126953125 388.2505798339844Q323.50030517578125 410.3341064453125 300.3333740234375 421.5008544921875Q277.16644287109375 432.6676025390625 244.99951171875 432.6676025390625Q206.9990234375 432.6676025390625 185.58200073242188 418.1673583984375Q164.16497802734375 403.6671142578125 164.16497802734375 380.6666259765625Q164.16497802734375 361.99951171875 177.41519165039062 350.0826721191406Q190.6654052734375 338.16583251953125 217.08230590820312 330.4991455078125Q243.49920654296875 322.83245849609375 282.83258056640625 314.16583251953125Q317.16595458984375 307.33251953125 353.83258056640625 296.9159240722656Q390.49920654296875 286.49932861328125 421.9158020019531 268.5827331542969Q453.3323974609375 250.6661376953125 472.9156799316406 221.16619873046875Q492.49896240234375 191.666259765625 492.49896240234375 145.9996337890625Q492.49896240234375 97.6663818359375 465.7489929199219 61.49981689453125Q438.9990234375 25.333251953125 387.9991455078125 5.749969482421875Q336.999267578125 -13.83331298828125 263.16619873046875 -13.83331298828125Z"/>
<g transform="translate(5980.0,124.0) scale(8.4000)">
<path d="M50 8 C31 8 16 23 16 42 C16 68 50 124 50 124 C50 124 84 68 84 42 C84 23 69 8 50 8 Z M76 42 A26 26 0 1 0 24 42 A26 26 0 1 0 76 42 Z" fill="#EFE6D4" fill-rule="evenodd"/>
<circle cx="50" cy="42" r="22.5" fill="none" stroke="#C2551F" stroke-width="1"/>
<line x1="50" y1="37.3" x2="50" y2="20.5" stroke="#C2551F" stroke-width="1.5" stroke-linecap="round"/><circle cx="50" cy="20.5" r="1.7" fill="#C2551F"/>
<line x1="52.04" y1="37.77" x2="59.33" y2="22.63" stroke="#C2551F" stroke-width="1.5" stroke-linecap="round"/><circle cx="59.33" cy="22.63" r="1.7" fill="#C2551F"/>
<line x1="53.67" y1="39.07" x2="66.81" y2="28.59" stroke="#C2551F" stroke-width="1.5" stroke-linecap="round"/><circle cx="66.81" cy="28.59" r="1.7" fill="#C2551F"/>
<line x1="54.58" y1="40.95" x2="70.96" y2="37.22" stroke="#C2551F" stroke-width="1.5" stroke-linecap="round"/><circle cx="70.96" cy="37.22" r="1.7" fill="#C2551F"/>
<line x1="54.58" y1="43.05" x2="70.96" y2="46.78" stroke="#C2551F" stroke-width="1.5" stroke-linecap="round"/><circle cx="70.96" cy="46.78" r="1.7" fill="#C2551F"/>
<line x1="53.67" y1="44.93" x2="66.81" y2="55.41" stroke="#C2551F" stroke-width="1.5" stroke-linecap="round"/><circle cx="66.81" cy="55.41" r="1.7" fill="#C2551F"/>
<line x1="52.04" y1="46.23" x2="59.33" y2="61.37" stroke="#C2551F" stroke-width="1.5" stroke-linecap="round"/><circle cx="59.33" cy="61.37" r="1.7" fill="#C2551F"/>
<line x1="50" y1="46.7" x2="50" y2="63.5" stroke="#C2551F" stroke-width="1.5" stroke-linecap="round"/><circle cx="50" cy="63.5" r="1.7" fill="#C2551F"/>
<line x1="47.96" y1="46.23" x2="40.67" y2="61.37" stroke="#C2551F" stroke-width="1.5" stroke-linecap="round"/><circle cx="40.67" cy="61.37" r="1.7" fill="#C2551F"/>
<line x1="46.33" y1="44.93" x2="33.19" y2="55.41" stroke="#C2551F" stroke-width="1.5" stroke-linecap="round"/><circle cx="33.19" cy="55.41" r="1.7" fill="#C2551F"/>
<line x1="45.42" y1="43.05" x2="29.04" y2="46.78" stroke="#C2551F" stroke-width="1.5" stroke-linecap="round"/><circle cx="29.04" cy="46.78" r="1.7" fill="#C2551F"/>
<line x1="45.42" y1="40.95" x2="29.04" y2="37.22" stroke="#C2551F" stroke-width="1.5" stroke-linecap="round"/><circle cx="29.04" cy="37.22" r="1.7" fill="#C2551F"/>
<line x1="46.33" y1="39.07" x2="33.19" y2="28.59" stroke="#C2551F" stroke-width="1.5" stroke-linecap="round"/><circle cx="33.19" cy="28.59" r="1.7" fill="#C2551F"/>
<line x1="47.96" y1="37.77" x2="40.67" y2="22.63" stroke="#C2551F" stroke-width="1.5" stroke-linecap="round"/><circle cx="40.67" cy="22.63" r="1.7" fill="#C2551F"/>
<circle cx="50" cy="42" r="3.2" fill="#EFE6D4"/></g>
</svg>
