<svg xmlns="http://www.w3.org/2000/svg" viewBox="0 0 512 512" width="512" height="512" role="img" aria-label="Cycling Commons">
<title>Cycling Commons</title>
<rect width="512" height="512" fill="#101E16"/>
<g transform="translate(187.54,70.00) scale(1.3692)">
<path d="M50 8 C31 8 16 23 16 42 C16 68 50 124 50 124 C50 124 84 68 84 42 C84 23 69 8 50 8 Z M76 42 A26 26 0 1 0 24 42 A26 26 0 1 0 76 42 Z" fill="#EFE6D4" fill-rule="evenodd"/>
<circle cx="50" cy="42" r="22.5" fill="none" stroke="#FF5A1F" stroke-width="1"/>
<line x1="50" y1="37.3" x2="50" y2="20.5" stroke="#FF5A1F" stroke-width="1.5" stroke-linecap="round"/><circle cx="50" cy="20.5" r="1.7" fill="#FF5A1F"/>
<line x1="52.04" y1="37.77" x2="59.33" y2="22.63" stroke="#FF5A1F" stroke-width="1.5" stroke-linecap="round"/><circle cx="59.33" cy="22.63" r="1.7" fill="#FF5A1F"/>
<line x1="53.67" y1="39.07" x2="66.81" y2="28.59" stroke="#FF5A1F" stroke-width="1.5" stroke-linecap="round"/><circle cx="66.81" cy="28.59" r="1.7" fill="#FF5A1F"/>
<line x1="54.58" y1="40.95" x2="70.96" y2="37.22" stroke="#FF5A1F" stroke-width="1.5" stroke-linecap="round"/><circle cx="70.96" cy="37.22" r="1.7" fill="#FF5A1F"/>
<line x1="54.58" y1="43.05" x2="70.96" y2="46.78" stroke="#FF5A1F" stroke-width="1.5" stroke-linecap="round"/><circle cx="70.96" cy="46.78" r="1.7" fill="#FF5A1F"/>
<line x1="53.67" y1="44.93" x2="66.81" y2="55.41" stroke="#FF5A1F" stroke-width="1.5" stroke-linecap="round"/><circle cx="66.81" cy="55.41" r="1.7" fill="#FF5A1F"/>
<line x1="52.04" y1="46.23" x2="59.33" y2="61.37" stroke="#FF5A1F" stroke-width="1.5" stroke-linecap="round"/><circle cx="59.33" cy="61.37" r="1.7" fill="#FF5A1F"/>
<line x1="50" y1="46.7" x2="50" y2="63.5" stroke="#FF5A1F" stroke-width="1.5" stroke-linecap="round"/><circle cx="50" cy="63.5" r="1.7" fill="#FF5A1F"/>
<line x1="47.96" y1="46.23" x2="40.67" y2="61.37" stroke="#FF5A1F" stroke-width="1.5" stroke-linecap="round"/><circle cx="40.67" cy="61.37" r="1.7" fill="#FF5A1F"/>
<line x1="46.33" y1="44.93" x2="33.19" y2="55.41" stroke="#FF5A1F" stroke-width="1.5" stroke-linecap="round"/><circle cx="33.19" cy="55.41" r="1.7" fill="#FF5A1F"/>
<line x1="45.42" y1="43.05" x2="29.04" y2="46.78" stroke="#FF5A1F" stroke-width="1.5" stroke-linecap="round"/><circle cx="29.04" cy="46.78" r="1.7" fill="#FF5A1F"/>
<line x1="45.42" y1="40.95" x2="29.04" y2="37.22" stroke="#FF5A1F" stroke-width="1.5" stroke-linecap="round"/><circle cx="29.04" cy="37.22" r="1.7" fill="#FF5A1F"/>
<line x1="46.33" y1="39.07" x2="33.19" y2="28.59" stroke="#FF5A1F" stroke-width="1.5" stroke-linecap="round"/><circle cx="33.19" cy="28.59" r="1.7" fill="#FF5A1F"/>
<line x1="47.96" y1="37.77" x2="40.67" y2="22.63" stroke="#FF5A1F" stroke-width="1.5" stroke-linecap="round"/><circle cx="40.67" cy="22.63" r="1.7" fill="#FF5A1F"/>
<circle cx="50" cy="42" r="3.2" fill="#EFE6D4"/>
<circle cx="50" cy="42" r="1.6" fill="#101E16"/></g>
<path transform="translate(143.44,334.00) scale(0.07000,-0.07000)" fill="#EFE6D4" d="M341 -14Q257 -14 197.0 13.0Q137 40 99.0 88.0Q61 136 43.5 197.5Q26 259 26 328Q26 399 44.0 462.0Q62 525 99.5 572.5Q137 620 196.0 647.0Q255 674 338 674Q410 674 462.0 653.5Q514 633 545.5 597.5Q577 562 589.0 516.0Q601 470 595 420L446 402Q448 445 435.5 476.0Q423 507 397.5 524.0Q372 541 333 541Q300 541 274.5 528.0Q249 515 231.5 489.0Q214 463 205.0 424.5Q196 386 196 335Q196 269 212.0 220.5Q228 172 261.0 145.5Q294 119 344 119Q390 119 416.5 140.0Q443 161 454.0 198.0Q465 235 461 281L614 268Q619 213 606.5 162.5Q594 112 561.5 72.0Q529 32 474.5 9.0Q420 -14 341 -14Z"/>
<path transform="translate(186.77,334.00) scale(0.07000,-0.07000)" fill="#EFE6D4" d="M225 -156Q195 -156 159.0 -151.0Q123 -146 87.0 -135.0Q51 -124 20 -107L57 56Q93 22 137.5 8.0Q182 -6 217 -6Q266 -6 299.5 13.5Q333 33 350.0 70.5Q367 108 367 162V254H358Q356 184 335.5 139.5Q315 95 280.0 74.0Q245 53 199 53Q142 53 104.5 82.0Q67 111 48.0 169.0Q29 227 29 314V528H190V356Q190 271 208.0 232.0Q226 193 265 193Q285 193 300.5 203.5Q316 214 326.0 235.5Q336 257 341.0 289.5Q346 322 346 365V528H507V156Q507 102 496.0 54.5Q485 7 463.0 -31.5Q441 -70 407.5 -98.0Q374 -126 328.5 -141.0Q283 -156 225 -156Z"/>
<path transform="translate(223.66,334.00) scale(0.07000,-0.07000)" fill="#EFE6D4" d="M289 -14Q218 -14 167.0 7.5Q116 29 84.0 67.0Q52 105 37.0 154.0Q22 203 22 258Q22 314 37.0 364.5Q52 415 83.5 455.5Q115 496 165.5 519.0Q216 542 287 542Q371 542 422.5 510.5Q474 479 494.5 429.0Q515 379 506 321L366 310Q368 346 358.5 369.5Q349 393 330.0 404.5Q311 416 284 416Q260 416 241.5 407.0Q223 398 210.5 379.5Q198 361 191.5 333.0Q185 305 185 266Q185 216 196.5 180.0Q208 144 231.5 125.0Q255 106 291 106Q328 106 347.0 124.0Q366 142 372.0 169.5Q378 197 374 224L523 217Q529 173 519.0 131.5Q509 90 480.5 57.0Q452 24 404.5 5.0Q357 -14 289 -14Z"/>
<path transform="translate(260.55,334.00) scale(0.07000,-0.07000)" fill="#EFE6D4" d="M36 0V700H198V0Z"/>
<path transform="translate(276.09,334.00) scale(0.07000,-0.07000)" fill="#EFE6D4" d="M36 0V528H198V0ZM116 566Q70 566 45.5 585.5Q21 605 21 642Q21 680 45.5 699.5Q70 719 116 719Q163 719 187.5 699.0Q212 679 212 642Q212 606 187.5 586.0Q163 566 116 566Z"/>
<path transform="translate(291.63,334.00) scale(0.07000,-0.07000)" fill="#EFE6D4" d="M36 0V299V528H173V313H181Q187 391 207.0 441.5Q227 492 264.0 517.0Q301 542 358 542Q444 542 487.5 485.0Q531 428 531 315V0H369V294Q369 348 352.5 375.0Q336 402 300 402Q270 402 247.0 381.0Q224 360 211.0 313.0Q198 266 198 187V0Z"/>
<path transform="translate(330.13,334.00) scale(0.07000,-0.07000)" fill="#EFE6D4" d="M245 -158Q156 -158 104.0 -144.0Q52 -130 30.0 -105.5Q8 -81 8 -49Q8 -5 43.0 21.5Q78 48 145 58V63Q94 63 65.0 80.5Q36 98 36 129Q36 158 62.5 181.0Q89 204 149 204V211Q95 224 63.0 261.0Q31 298 31 357Q31 409 57.5 447.0Q84 485 135.0 506.5Q186 528 259 528H522V404L341 427V419Q424 408 453.5 381.5Q483 355 483 318Q483 281 460.5 252.0Q438 223 391.0 206.5Q344 190 272 190Q250 190 227.5 192.0Q205 194 189 198Q172 191 162.5 183.5Q153 176 153 168Q153 163 157.0 160.5Q161 158 168.5 157.0Q176 156 186 156H346Q367 156 398.5 153.5Q430 151 461.5 138.5Q493 126 514.0 97.0Q535 68 535 15Q535 -45 503.5 -83.0Q472 -121 408.0 -139.5Q344 -158 245 -158ZM245 -16Q312 -16 344.0 -11.5Q376 -7 386.0 1.0Q396 9 396 19Q396 33 388.0 41.0Q380 49 368.0 52.5Q356 56 344.5 56.5Q333 57 326 57H191Q159 46 147.5 36.5Q136 27 136 15Q136 1 149.5 -5.5Q163 -12 187.5 -14.0Q212 -16 245 -16ZM262 278Q294 278 311.5 298.0Q329 318 329 353Q329 388 311.0 409.5Q293 431 261 431Q230 431 211.5 409.5Q193 388 193 353Q193 330 201.0 313.0Q209 296 224.5 287.0Q240 278 262 278Z"/>
<path transform="translate(98.78,406.80) scale(0.07000,-0.07000)" fill="#EFE6D4" d="M341 -14Q257 -14 197.0 13.0Q137 40 99.0 88.0Q61 136 43.5 197.5Q26 259 26 328Q26 399 44.0 462.0Q62 525 99.5 572.5Q137 620 196.0 647.0Q255 674 338 674Q410 674 462.0 653.5Q514 633 545.5 597.5Q577 562 589.0 516.0Q601 470 595 420L446 402Q448 445 435.5 476.0Q423 507 397.5 524.0Q372 541 333 541Q300 541 274.5 528.0Q249 515 231.5 489.0Q214 463 205.0 424.5Q196 386 196 335Q196 269 212.0 220.5Q228 172 261.0 145.5Q294 119 344 119Q390 119 416.5 140.0Q443 161 454.0 198.0Q465 235 461 281L614 268Q619 213 606.5 162.5Q594 112 561.5 72.0Q529 32 474.5 9.0Q420 -14 341 -14Z"/>
<path transform="translate(142.11,406.80) scale(0.07000,-0.07000)" fill="#EFE6D4" d="M282 -14Q206 -14 147.0 16.5Q88 47 55.0 108.5Q22 170 22 263Q22 360 56.5 421.5Q91 483 150.5 512.5Q210 542 285 542Q363 542 421.5 511.5Q480 481 512.5 419.5Q545 358 545 264Q545 167 510.5 105.5Q476 44 416.5 15.0Q357 -14 282 -14ZM286 105Q317 105 338.0 122.5Q359 140 370.0 174.0Q381 208 381 255Q381 307 369.0 342.5Q357 378 334.5 397.0Q312 416 280 416Q250 416 229.0 398.5Q208 381 197.0 347.0Q186 313 186 265Q186 189 212.5 147.0Q239 105 286 105Z"/>
<path transform="translate(180.96,406.80) scale(0.07000,-0.07000)" fill="#EFE6D4" d="M36 0V293V528H173V313H181Q188 397 208.5 447.0Q229 497 263.5 519.5Q298 542 346 542Q396 542 427.0 517.5Q458 493 473.0 442.5Q488 392 487 313H495Q502 396 524.0 446.0Q546 496 582.0 519.0Q618 542 667 542Q708 542 738.0 527.0Q768 512 788.5 482.0Q809 452 819.0 406.5Q829 361 829 300V0H667V286Q667 324 660.5 349.5Q654 375 641.0 387.5Q628 400 608 400Q582 400 560.0 376.5Q538 353 524.5 306.0Q511 259 511 187V0H353V290Q353 328 346.5 352.0Q340 376 326.5 388.0Q313 400 293 400Q268 400 246.5 379.5Q225 359 211.5 312.0Q198 265 198 187V0Z"/>
<path transform="translate(240.32,406.80) scale(0.07000,-0.07000)" fill="#EFE6D4" d="M36 0V293V528H173V313H181Q188 397 208.5 447.0Q229 497 263.5 519.5Q298 542 346 542Q396 542 427.0 517.5Q458 493 473.0 442.5Q488 392 487 313H495Q502 396 524.0 446.0Q546 496 582.0 519.0Q618 542 667 542Q708 542 738.0 527.0Q768 512 788.5 482.0Q809 452 819.0 406.5Q829 361 829 300V0H667V286Q667 324 660.5 349.5Q654 375 641.0 387.5Q628 400 608 400Q582 400 560.0 376.5Q538 353 524.5 306.0Q511 259 511 187V0H353V290Q353 328 346.5 352.0Q340 376 326.5 388.0Q313 400 293 400Q268 400 246.5 379.5Q225 359 211.5 312.0Q198 265 198 187V0Z"/>
<path transform="translate(299.68,406.80) scale(0.07000,-0.07000)" fill="#EFE6D4" d="M282 -14Q206 -14 147.0 16.5Q88 47 55.0 108.5Q22 170 22 263Q22 360 56.5 421.5Q91 483 150.5 512.5Q210 542 285 542Q363 542 421.5 511.5Q480 481 512.5 419.5Q545 358 545 264Q545 167 510.5 105.5Q476 44 416.5 15.0Q357 -14 282 -14ZM286 105Q317 105 338.0 122.5Q359 140 370.0 174.0Q381 208 381 255Q381 307 369.0 342.5Q357 378 334.5 397.0Q312 416 280 416Q250 416 229.0 398.5Q208 381 197.0 347.0Q186 313 186 265Q186 189 212.5 147.0Q239 105 286 105Z"/>
<path transform="translate(338.53,406.80) scale(0.07000,-0.07000)" fill="#EFE6D4" d="M36 0V299V528H173V313H181Q187 391 207.0 441.5Q227 492 264.0 517.0Q301 542 358 542Q444 542 487.5 485.0Q531 428 531 315V0H369V294Q369 348 352.5 375.0Q336 402 300 402Q270 402 247.0 381.0Q224 360 211.0 313.0Q198 266 198 187V0Z"/>
<path transform="translate(377.03,406.80) scale(0.07000,-0.07000)" fill="#EFE6D4" d="M267 -14Q214 -14 168.5 -3.5Q123 7 89.5 30.0Q56 53 38.5 91.5Q21 130 24 185L165 197Q167 164 180.0 142.5Q193 121 216.0 111.0Q239 101 272 101Q303 101 325.5 111.5Q348 122 348 147Q348 160 340.0 168.5Q332 177 310.5 184.5Q289 192 248 202Q197 215 156.0 228.0Q115 241 86.0 259.0Q57 277 42.0 303.5Q27 330 27 369Q27 424 56.5 462.5Q86 501 138.0 521.5Q190 542 258 542Q319 542 372.0 523.0Q425 504 455.5 461.0Q486 418 478 347L340 334Q343 363 332.0 383.5Q321 404 300.0 414.5Q279 425 249 425Q215 425 196.5 412.5Q178 400 178 381Q178 366 189.5 355.5Q201 345 225.5 337.5Q250 330 289 321Q323 314 360.0 303.0Q397 292 429.0 273.5Q461 255 481.0 225.0Q501 195 501 149Q501 100 474.0 63.0Q447 26 395.0 6.0Q343 -14 267 -14Z"/>
</svg>
